Facade-Regular.ufo
<glyph name="dollar" format="2">
  <advance width="750"/>
  <unicode hex="0024"/>
  <outline>
    <contour>
      <point x="348" y="-120" type="line"/>
      <point x="432" y="-120" type="line"/>
      <point x="432" y="990" type="line"/>
      <point x="348" y="990" type="line"/>
    </contour>
    <contour>
      <point x="365" y="-12" type="curve" smooth="yes"/>
      <point x="526" y="-12"/>
      <point x="645" y="99"/>
      <point x="645" y="253" type="curve" smooth="yes"/>
      <point x="645" y="412"/>
      <point x="518" y="476"/>
      <point x="464" y="503" type="curve" smooth="yes"/>
      <point x="352" y="559" type="line" smooth="yes"/>
      <point x="322" y="574"/>
      <point x="253" y="609"/>
      <point x="253" y="689" type="curve" smooth="yes"/>
      <point x="253" y="758"/>
      <point x="305" y="812"/>
      <point x="385" y="812" type="curve" smooth="yes"/>
      <point x="467" y="812"/>
      <point x="537" y="752"/>
      <point x="570" y="696" type="curve"/>
      <point x="603" y="834" type="line"/>
      <point x="562" y="870"/>
      <point x="486" y="912"/>
      <point x="390" y="912" type="curve" smooth="yes"/>
      <point x="243" y="912"/>
      <point x="141" y="814"/>
      <point x="141" y="678" type="curve" smooth="yes"/>
      <point x="141" y="538"/>
      <point x="249" y="483"/>
      <point x="302" y="456" type="curve" smooth="yes"/>
      <point x="412" y="400" type="line" smooth="yes"/>
      <point x="446" y="383"/>
      <point x="533" y="341"/>
      <point x="533" y="246" type="curve" smooth="yes"/>
      <point x="533" y="158"/>
      <point x="464" y="90"/>
      <point x="369" y="90" type="curve" smooth="yes"/>
      <point x="265" y="90"/>
      <point x="188" y="161"/>
      <point x="151" y="236" type="curve"/>
      <point x="118" y="98" type="line"/>
      <point x="169" y="37"/>
      <point x="258" y="-12"/>
    </contour>
  </outline>
</glyph>
<glyph name="ampersand" format="2">
  <advance width="800"/>
  <unicode hex="0026"/>
  <outline>
    <contour>
      <point x="381" y="-12" type="curve" smooth="yes"/>
      <point x="464" y="-12"/>
      <point x="546" y="19"/>
      <point x="613" y="82" type="curve"/>
      <point x="554" y="91" type="line"/>
      <point x="622" y="0" type="line"/>
      <point x="750" y="0" type="line"/>
      <point x="665" y="116" type="line"/>
      <point x="709" y="160"/>
      <point x="742" y="213"/>
      <point x="764" y="271" type="curve"/>
      <point x="684" y="381" type="line"/>
      <point x="678" y="315"/>
      <point x="651" y="252"/>
      <point x="609" y="202" type="curve"/>
      <point x="400" y="490" type="line"/>
      <point x="433" y="507" type="line" smooth="yes"/>
      <point x="473" y="528"/>
      <point x="582" y="581"/>
      <point x="582" y="706" type="curve" smooth="yes"/>
      <point x="582" y="822"/>
      <point x="487" y="912"/>
      <point x="371" y="912" type="curve" smooth="yes"/>
      <point x="255" y="912"/>
      <point x="162" y="822"/>
      <point x="162" y="705" type="curve" smooth="yes"/>
      <point x="162" y="635"/>
      <point x="194" y="587"/>
      <point x="228" y="543" type="curve" smooth="yes"/>
      <point x="248" y="517" type="line"/>
      <point x="183" y="481"/>
      <point x="84" y="407"/>
      <point x="84" y="268" type="curve" smooth="yes"/>
      <point x="84" y="103"/>
      <point x="209" y="-12"/>
    </contour>
    <contour>
      <point x="387" y="88" type="curve" smooth="yes"/>
      <point x="265" y="88"/>
      <point x="196" y="173"/>
      <point x="196" y="272" type="curve" smooth="yes"/>
      <point x="196" y="368"/>
      <point x="262" y="418"/>
      <point x="304" y="442" type="curve"/>
      <point x="528" y="131" type="line"/>
      <point x="485" y="105"/>
      <point x="438" y="88"/>
    </contour>
    <contour>
      <point x="345" y="569" type="line"/>
      <point x="318" y="608" type="line" smooth="yes"/>
      <point x="292" y="646"/>
      <point x="270" y="677"/>
      <point x="270" y="714" type="curve" smooth="yes"/>
      <point x="270" y="770"/>
      <point x="312" y="816"/>
      <point x="371" y="816" type="curve" smooth="yes"/>
      <point x="430" y="816"/>
      <point x="474" y="770"/>
      <point x="474" y="711" type="curve" smooth="yes"/>
      <point x="474" y="638"/>
      <point x="412" y="603"/>
      <point x="386" y="590" type="curve" smooth="yes"/>
    </contour>
  </outline>
</glyph>
<glyph name="comma" format="2">
  <advance width="270"/>
  <unicode hex="002C"/>
  <outline>
    <contour>
      <point x="6" y="-150" type="curve"/>
      <point x="126" y="-150" type="line"/>
      <point x="181" y="-65"/>
      <point x="214" y="36"/>
      <point x="214" y="150" type="curve"/>
      <point x="106" y="150" type="line"/>
      <point x="106" y="22"/>
      <point x="66" y="-76"/>
    </contour>
  </outline>
</glyph>
<glyph name="six" format="2">
  <advance width="750"/>
  <unicode hex="0036"/>
  <outline>
    <contour>
      <point x="381" y="-12" type="curve" smooth="yes"/>
      <point x="557" y="-12"/>
      <point x="696" y="121"/>
      <point x="696" y="294" type="curve" smooth="yes"/>
      <point x="696" y="466"/>
      <point x="562" y="594"/>
      <point x="398" y="594" type="curve" smooth="yes"/>
      <point x="352" y="594"/>
      <point x="307" y="583"/>
      <point x="265" y="543" type="curve"/>
      <point x="270" y="536" type="line"/>
      <point x="468" y="900" type="line"/>
      <point x="344" y="900" type="line"/>
      <point x="103" y="440" type="line" smooth="yes"/>
      <point x="80" y="396"/>
      <point x="66" y="345"/>
      <point x="66" y="293" type="curve" smooth="yes"/>
      <point x="66" y="121"/>
      <point x="205" y="-12"/>
    </contour>
    <contour>
      <point x="382" y="90" type="curve" smooth="yes"/>
      <point x="267" y="90"/>
      <point x="176" y="182"/>
      <point x="176" y="295" type="curve" smooth="yes"/>
      <point x="176" y="407"/>
      <point x="267" y="500"/>
      <point x="382" y="500" type="curve" smooth="yes"/>
      <point x="498" y="500"/>
      <point x="588" y="407"/>
      <point x="588" y="295" type="curve" smooth="yes"/>
      <point x="588" y="182"/>
      <point x="497" y="90"/>
    </contour>
  </outline>
</glyph>
<glyph name="I" format="2">
  <advance width="390"/>
  <unicode hex="0049"/>
  <anchor x="195" y="0" name="bottom"/>
  <anchor x="195" y="0" name="ogonek"/>
  <anchor x="195" y="900" name="top"/>
  <anchor x="0" y="900" name="topleft"/>
  <outline>
    <contour>
      <point x="138" y="0" type="line"/>
      <point x="252" y="0" type="line"/>
      <point x="252" y="900" type="line"/>
      <point x="138" y="900" type="line"/>
    </contour>
  </outline>
</glyph>
<glyph name="R" format="2">
  <advance width="780"/>
  <unicode hex="0052"/>
  <anchor x="439" y="0" name="bottom"/>
  <anchor x="325" y="900" name="top"/>
  <outline>
    <contour>
      <point x="129" y="0" type="line"/>
      <point x="243" y="0" type="line"/>
      <point x="243" y="900" type="line"/>
      <point x="129" y="900" type="line"/>
    </contour>
    <contour>
      <point x="186" y="414" type="line"/>
      <point x="355" y="414" type="line" smooth="yes"/>
      <point x="518" y="414"/>
      <point x="629" y="521"/>
      <point x="629" y="655" type="curve" smooth="yes"/>
      <point x="629" y="787"/>
      <point x="524" y="900"/>
      <point x="355" y="900" type="curve" smooth="yes"/>
      <point x="186" y="900" type="line"/>
      <point x="186" y="798" type="line"/>
      <point x="355" y="798" type="line" smooth="yes"/>
      <point x="455" y="798"/>
      <point x="521" y="739"/>
      <point x="521" y="655" type="curve" smooth="yes"/>
      <point x="521" y="585"/>
      <point x="470" y="510"/>
      <point x="355" y="510" type="curve" smooth="yes"/>
      <point x="186" y="510" type="line"/>
    </contour>
    <contour>
      <point x="641" y="0" type="line"/>
      <point x="774" y="0" type="line"/>
      <point x="440" y="480" type="line"/>
      <point x="309" y="480" type="line"/>
    </contour>
  </outline>
</glyph>
<glyph name="e" format="2">
  <advance width="710"/>
  <unicode hex="0065"/>
  <anchor x="358" y="0" name="bottom"/>
  <anchor x="498" y="0" name="ogonek"/>
  <anchor x="358" y="600" name="top"/>
  <outline>
    <contour>
      <point x="382" y="-12" type="curve" smooth="yes"/>
      <point x="464" y="-12"/>
      <point x="540" y="15"/>
      <point x="598" y="62" type="curve"/>
      <point x="568" y="185" type="line"/>
      <point x="528" y="128"/>
      <point x="459" y="90"/>
      <point x="383" y="90" type="curve" smooth="yes"/>
      <point x="259" y="90"/>
      <point x="162" y="187"/>
      <point x="162" y="308" type="curve"/>
      <point x="156" y="308" type="line"/>
      <point x="156" y="418"/>
      <point x="246" y="516"/>
      <point x="359" y="516" type="curve" smooth="yes"/>
      <point x="467" y="516"/>
      <point x="560" y="428"/>
      <point x="560" y="314" type="curve"/>
      <point x="582" y="351" type="line"/>
      <point x="544" y="357"/>
      <point x="507" y="360"/>
      <point x="469" y="360" type="curve" smooth="yes"/>
      <point x="270" y="360" type="line" smooth="yes"/>
      <point x="213" y="360"/>
      <point x="155" y="352"/>
      <point x="98" y="340" type="curve"/>
      <point x="98" y="290" type="line"/>
      <point x="155" y="278"/>
      <point x="213" y="270"/>
      <point x="270" y="270" type="curve" smooth="yes"/>
      <point x="662" y="270" type="line"/>
      <point x="662" y="314" type="line" smooth="yes"/>
      <point x="662" y="483"/>
      <point x="525" y="612"/>
      <point x="359" y="612" type="curve" smooth="yes"/>
      <point x="190" y="612"/>
      <point x="54" y="476"/>
      <point x="54" y="306" type="curve" smooth="yes"/>
      <point x="54" y="127"/>
      <point x="193" y="-12"/>
    </contour>
  </outline>
</glyph>
<glyph name="h" format="2">
  <advance width="720"/>
  <unicode hex="0068"/>
  <anchor x="360" y="0" name="bottom"/>
  <anchor x="150" y="780" name="center"/>
  <anchor x="150" y="960" name="top"/>
  <outline>
    <contour>
      <point x="96" y="0" type="line"/>
      <point x="204" y="0" type="line"/>
      <point x="204" y="439" type="line"/>
      <point x="204" y="462" type="line"/>
      <point x="204" y="960" type="line"/>
      <point x="96" y="960" type="line"/>
    </contour>
    <contour>
      <point x="528" y="0" type="line"/>
      <point x="636" y="0" type="line"/>
      <point x="636" y="345" type="line" smooth="yes"/>
      <point x="636" y="514"/>
      <point x="522" y="612"/>
      <point x="395" y="612" type="curve" smooth="yes"/>
      <point x="266" y="612"/>
      <point x="154" y="515"/>
      <point x="154" y="341" type="curve"/>
      <point x="204" y="333" type="line"/>
      <point x="204" y="448"/>
      <point x="282" y="510"/>
      <point x="366" y="510" type="curve" smooth="yes"/>
      <point x="469" y="510"/>
      <point x="528" y="425"/>
      <point x="528" y="330" type="curve" smooth="yes"/>
    </contour>
  </outline>
</glyph>
<glyph name="t" format="2">
  <advance width="450"/>
  <unicode hex="0074"/>
  <anchor x="220" y="0" name="bottom"/>
  <anchor x="220" y="300" name="center"/>
  <anchor x="220" y="800" name="top"/>
  <anchor x="294" y="1020" name="topright"/>
  <outline>
    <contour>
      <point x="166" y="0" type="line"/>
      <point x="274" y="0" type="line"/>
      <point x="274" y="549" type="line"/>
      <point x="271" y="549" type="line"/>
      <point x="271" y="800" type="line"/>
      <point x="169" y="800" type="line"/>
      <point x="169" y="550" type="line"/>
      <point x="166" y="550" type="line"/>
    </contour>
    <contour>
      <point x="30" y="510" type="line"/>
      <point x="420" y="510" type="line"/>
      <point x="420" y="600" type="line"/>
      <point x="30" y="600" type="line"/>
    </contour>
  </outline>
</glyph>
<glyph name="guillemetleft" format="2">
  <advance width="600"/>
  <unicode hex="00AB"/>
  <outline>
    <contour>
      <point x="444" y="60" type="line"/>
      <point x="552" y="60" type="line"/>
      <point x="390" y="300" type="line"/>
      <point x="552" y="540" type="line"/>
      <point x="444" y="540" type="line"/>
      <point x="282" y="300" type="line"/>
    </contour>
    <contour>
      <point x="204" y="60" type="line"/>
      <point x="312" y="60" type="line"/>
      <point x="150" y="300" type="line"/>
      <point x="312" y="540" type="line"/>
      <point x="204" y="540" type="line"/>
      <point x="42" y="300" type="line"/>
    </contour>
  </outline>
</glyph>
<glyph name="ordmasculine" format="2">
  <advance width="480"/>
  <unicode hex="00BA"/>
  <outline>
    <contour>
      <point x="240" y="408" type="curve" smooth="yes"/>
      <point x="350" y="408"/>
      <point x="438" y="494"/>
      <point x="438" y="600" type="curve" smooth="yes"/>
      <point x="438" y="706"/>
      <point x="350" y="792"/>
      <point x="240" y="792" type="curve" smooth="yes"/>
      <point x="130" y="792"/>
      <point x="42" y="706"/>
      <point x="42" y="600" type="curve" smooth="yes"/>
      <point x="42" y="494"/>
      <point x="130" y="408"/>
    </contour>
    <contour>
      <point x="240" y="489" type="curve" smooth="yes"/>
      <point x="176" y="489"/>
      <point x="126" y="539"/>
      <point x="126" y="600" type="curve" smooth="yes"/>
      <point x="126" y="661"/>
      <point x="176" y="711"/>
      <point x="240" y="711" type="curve" smooth="yes"/>
      <point x="303" y="711"/>
      <point x="354" y="661"/>
      <point x="354" y="600" type="curve" smooth="yes"/>
      <point x="354" y="539"/>
      <point x="303" y="489"/>
    </contour>
  </outline>
</glyph>
<glyph name="guillemetright" format="2">
  <advance width="600"/>
  <unicode hex="00BB"/>
  <outline>
    <contour>
      <point x="288" y="60" type="line"/>
      <point x="396" y="60" type="line"/>
      <point x="558" y="300" type="line"/>
      <point x="396" y="540" type="line"/>
      <point x="288" y="540" type="line"/>
      <point x="450" y="300" type="line"/>
    </contour>
    <contour>
      <point x="48" y="60" type="line"/>
      <point x="156" y="60" type="line"/>
      <point x="318" y="300" type="line"/>
      <point x="156" y="540" type="line"/>
      <point x="48" y="540" type="line"/>
      <point x="210" y="300" type="line"/>
    </contour>
  </outline>
</glyph>
<glyph name="eogonek" format="2">
  <advance width="710"/>
  <unicode hex="0119"/>
  <anchor x="355" y="600" name="top"/>
  <outline>
    <contour>
      <point x="553" y="-312" type="curve"/>
      <point x="575" y="-219" type="line"/>
      <point x="524" y="-219"/>
      <point x="488" y="-195"/>
      <point x="488" y="-134" type="curve" smooth="yes"/>
      <point x="488" y="-83"/>
      <point x="512" y="-33"/>
      <point x="598" y="62" type="curve"/>
      <point x="556" y="235" type="line"/>
      <point x="585" y="193" type="line"/>
      <point x="550" y="133"/>
      <point x="471" y="90"/>
      <point x="383" y="90" type="curve" smooth="yes"/>
      <point x="259" y="90"/>
      <point x="162" y="187"/>
      <point x="162" y="308" type="curve"/>
      <point x="156" y="308" type="line"/>
      <point x="156" y="418"/>
      <point x="246" y="516"/>
      <point x="359" y="516" type="curve" smooth="yes"/>
      <point x="467" y="516"/>
      <point x="560" y="428"/>
      <point x="560" y="314" type="curve"/>
      <point x="582" y="351" type="line"/>
      <point x="544" y="357"/>
      <point x="507" y="360"/>
      <point x="469" y="360" type="curve" smooth="yes"/>
      <point x="270" y="360" type="line" smooth="yes"/>
      <point x="213" y="360"/>
      <point x="155" y="352"/>
      <point x="98" y="340" type="curve"/>
      <point x="98" y="290" type="line"/>
      <point x="155" y="278"/>
      <point x="213" y="270"/>
      <point x="270" y="270" type="curve" smooth="yes"/>
      <point x="662" y="270" type="line"/>
      <point x="662" y="314" type="line" smooth="yes"/>
      <point x="662" y="483"/>
      <point x="525" y="612"/>
      <point x="359" y="612" type="curve" smooth="yes"/>
      <point x="190" y="612"/>
      <point x="54" y="476"/>
      <point x="54" y="306" type="curve" smooth="yes"/>
      <point x="54" y="127"/>
      <point x="193" y="-12"/>
      <point x="382" y="-12" type="curve" smooth="yes"/>
      <point x="415" y="-12"/>
      <point x="445" y="-7"/>
      <point x="477" y="-1" type="curve"/>
      <point x="468" y="24" type="line"/>
      <point x="418" y="-35"/>
      <point x="388" y="-91"/>
      <point x="388" y="-153" type="curve" smooth="yes"/>
      <point x="388" y="-254"/>
      <point x="466" y="-312"/>
    </contour>
  </outline>
</glyph>
<glyph name="kgreenlandic" format="2">
  <advance width="630"/>
  <unicode hex="0138"/>
  <anchor x="346" y="0" name="bottom"/>
  <anchor x="300" y="600" name="top"/>
  <outline>
    <contour>
      <point x="487" y="0" type="line"/>
      <point x="624" y="0" type="line"/>
      <point x="319" y="369" type="line"/>
      <point x="307" y="292" type="line"/>
      <point x="564" y="600" type="line"/>
      <point x="439" y="600" type="line"/>
      <point x="216" y="330" type="line"/>
    </contour>
    <contour>
      <point x="96" y="0" type="line"/>
      <point x="204" y="0" type="line"/>
      <point x="204" y="600" type="line"/>
      <point x="96" y="600" type="line"/>
    </contour>
  </outline>
</glyph>
<glyph name="OE" format="2">
  <advance width="1380"/>
  <unicode hex="0152"/>
  <anchor x="530" y="0" name="bottom"/>
  <anchor x="530" y="450" name="center"/>
  <anchor x="530" y="0" name="ogonek"/>
  <anchor x="530" y="900" name="top"/>
  <anchor x="530" y="540" name="top-vertical"/>
  <anchor x="60" y="900" name="topleft"/>
  <anchor x="1000" y="900" name="topright"/>
  <outline>
    <contour>
      <point x="529" y="-18" type="curve" smooth="yes"/>
      <point x="685" y="-18"/>
      <point x="822" y="61"/>
      <point x="896" y="180" type="curve"/>
      <point x="882" y="204" type="line"/>
      <point x="882" y="0" type="line"/>
      <point x="1320" y="0" type="line"/>
      <point x="1320" y="102" type="line"/>
      <point x="990" y="102" type="line"/>
      <point x="990" y="504" type="line"/>
      <point x="1250" y="504" type="line"/>
      <point x="1250" y="606" type="line"/>
      <point x="990" y="606" type="line"/>
      <point x="990" y="798" type="line"/>
      <point x="1320" y="798" type="line"/>
      <point x="1320" y="900" type="line"/>
      <point x="882" y="900" type="line"/>
      <point x="882" y="696" type="line"/>
      <point x="896" y="720" type="line"/>
      <point x="822" y="839"/>
      <point x="685" y="918"/>
      <point x="529" y="918" type="curve" smooth="yes"/>
      <point x="269" y="918"/>
      <point x="60" y="709"/>
      <point x="60" y="450" type="curve" smooth="yes"/>
      <point x="60" y="191"/>
      <point x="274" y="-18"/>
    </contour>
    <contour>
      <point x="530" y="90" type="curve" smooth="yes"/>
      <point x="332" y="90"/>
      <point x="178" y="251"/>
      <point x="178" y="450" type="curve" smooth="yes"/>
      <point x="178" y="649"/>
      <point x="332" y="810"/>
      <point x="530" y="810" type="curve" smooth="yes"/>
      <point x="728" y="810"/>
      <point x="882" y="649"/>
      <point x="882" y="450" type="curve" smooth="yes"/>
      <point x="882" y="251"/>
      <point x="728" y="90"/>
    </contour>
  </outline>
</glyph>
<glyph name="uhorn" format="2">
  <advance width="840"/>
  <unicode hex="01B0"/>
  <anchor x="360" y="0" name="bottom"/>
  <anchor x="360" y="600" name="top"/>
  <outline>
    <contour>
      <point x="325" y="-12" type="curve" smooth="yes"/>
      <point x="454" y="-12"/>
      <point x="566" y="85"/>
      <point x="566" y="259" type="curve"/>
      <point x="516" y="267" type="line"/>
      <point x="516" y="152"/>
      <point x="438" y="90"/>
      <point x="352" y="90" type="curve" smooth="yes"/>
      <point x="252" y="90"/>
      <point x="192" y="174"/>
      <point x="192" y="270" type="curve" smooth="yes"/>
      <point x="192" y="600" type="line"/>
      <point x="84" y="600" type="line"/>
      <point x="84" y="255" type="line" smooth="yes"/>
      <point x="84" y="86"/>
      <point x="198" y="-12"/>
    </contour>
    <contour>
      <point x="524" y="0" type="line"/>
      <point x="624" y="0" type="line"/>
      <point x="624" y="450" type="line"/>
      <point x="618" y="450" type="line"/>
      <point x="618" y="600" type="line"/>
      <point x="516" y="600" type="line"/>
      <point x="516" y="161" type="line"/>
      <point x="524" y="138" type="line"/>
    </contour>
    <contour>
      <point x="666" y="398" type="curve" smooth="yes"/>
      <point x="745" y="398"/>
      <point x="816" y="458"/>
      <point x="816" y="568" type="curve" smooth="yes"/>
      <point x="816" y="597"/>
      <point x="811" y="628"/>
      <point x="792" y="660" type="curve"/>
      <point x="702" y="660" type="line"/>
      <point x="721" y="627"/>
      <point x="726" y="592"/>
      <point x="726" y="568" type="curve" smooth="yes"/>
      <point x="726" y="503"/>
      <point x="688" y="476"/>
      <point x="648" y="476" type="curve" smooth="yes"/>
      <point x="616" y="476"/>
      <point x="587" y="494"/>
      <point x="570" y="529" type="curve"/>
      <point x="570" y="433" type="line"/>
      <point x="596" y="410"/>
      <point x="630" y="398"/>
    </contour>
  </outline>
</glyph>
<glyph name="Ezh" format="2">
  <advance width="660"/>
  <unicode hex="01B7"/>
  <anchor x="302" y="0" name="bottom"/>
  <anchor x="313" y="900" name="top"/>
  <outline>
    <contour>
      <point x="302" y="-12" type="curve" smooth="yes"/>
      <point x="476" y="-12"/>
      <point x="618" y="125"/>
      <point x="618" y="300" type="curve" smooth="yes"/>
      <point x="618" y="463"/>
      <point x="496" y="584"/>
      <point x="348" y="601" type="curve"/>
      <point x="358" y="550" type="line"/>
      <point x="545" y="900" type="line"/>
      <point x="84" y="900" type="line"/>
      <point x="84" y="798" type="line"/>
      <point x="424" y="798" type="line"/>
      <point x="397" y="844" type="line"/>
      <point x="209" y="481" type="line"/>
      <point x="235" y="495"/>
      <point x="267" y="504"/>
      <point x="302" y="504" type="curve" smooth="yes"/>
      <point x="414" y="504"/>
      <point x="504" y="412"/>
      <point x="504" y="300" type="curve" smooth="yes"/>
      <point x="504" y="187"/>
      <point x="415" y="96"/>
      <point x="302" y="96" type="curve" smooth="yes"/>
      <point x="198" y="96"/>
      <point x="112" y="172"/>
      <point x="98" y="275" type="curve"/>
      <point x="30" y="141" type="line"/>
      <point x="85" y="46"/>
      <point x="186" y="-12"/>
    </contour>
  </outline>
</glyph>
<glyph name="ringcomb" format="2">
  <unicode hex="030A"/>
  <anchor x="360" y="600" name="_top"/>
  <outline>
    <contour>
      <point x="360" y="651" type="curve" smooth="yes"/>
      <point x="434" y="651"/>
      <point x="492" y="706"/>
      <point x="492" y="780" type="curve" smooth="yes"/>
      <point x="492" y="853"/>
      <point x="432" y="909"/>
      <point x="360" y="909" type="curve" smooth="yes"/>
      <point x="287" y="909"/>
      <point x="228" y="853"/>
      <point x="228" y="780" type="curve" smooth="yes"/>
      <point x="228" y="707"/>
      <point x="287" y="651"/>
    </contour>
    <contour>
      <point x="360" y="717" type="curve" smooth="yes"/>
      <point x="325" y="717"/>
      <point x="297" y="745"/>
      <point x="297" y="780" type="curve" smooth="yes"/>
      <point x="297" y="815"/>
      <point x="325" y="843"/>
      <point x="360" y="843" type="curve" smooth="yes"/>
      <point x="394" y="843"/>
      <point x="423" y="815"/>
      <point x="423" y="780" type="curve" smooth="yes"/>
      <point x="423" y="745"/>
      <point x="395" y="717"/>
    </contour>
  </outline>
</glyph>
<glyph name="dotbelowcomb" format="2">
  <unicode hex="0323"/>
  <anchor x="360" y="0" name="_bottom"/>
  <anchor x="360" y="-252" name="bottom"/>
  <outline>
    <contour>
      <point x="360" y="-252" type="curve" smooth="yes"/>
      <point x="401" y="-252"/>
      <point x="432" y="-220"/>
      <point x="432" y="-180" type="curve" smooth="yes"/>
      <point x="432" y="-139"/>
      <point x="401" y="-108"/>
      <point x="360" y="-108" type="curve" smooth="yes"/>
      <point x="320" y="-108"/>
      <point x="288" y="-139"/>
      <point x="288" y="-180" type="curve" smooth="yes"/>
      <point x="288" y="-220"/>
      <point x="320" y="-252"/>
    </contour>
  </outline>
</glyph>
<glyph name="emdash" format="2">
  <advance width="1440"/>
  <unicode hex="2014"/>
  <outline>
    <contour>
      <point x="60" y="249" type="line"/>
      <point x="1380" y="249" type="line"/>
      <point x="1380" y="351" type="line"/>
      <point x="60" y="351" type="line"/>
    </contour>
  </outline>
</glyph>
<glyph name="bullet" format="2">
  <advance width="480"/>
  <unicode hex="2022"/>
  <outline>
    <contour>
      <point x="240" y="294" type="curve" smooth="yes"/>
      <point x="326" y="294"/>
      <point x="396" y="364"/>
      <point x="396" y="450" type="curve" smooth="yes"/>
      <point x="396" y="536"/>
      <point x="326" y="606"/>
      <point x="240" y="606" type="curve" smooth="yes"/>
      <point x="154" y="606"/>
      <point x="84" y="536"/>
      <point x="84" y="450" type="curve" smooth="yes"/>
      <point x="84" y="364"/>
      <point x="154" y="294"/>
    </contour>
  </outline>
</glyph>
<glyph name="fraction" format="2">
  <advance width="120"/>
  <unicode hex="2044"/>
  <outline>
    <contour>
      <point x="-294" y="0" type="line"/>
      <point x="-204" y="0" type="line"/>
      <point x="414" y="900" type="line"/>
      <point x="324" y="900" type="line"/>
    </contour>
  </outline>
</glyph>
<glyph name="braceleft.titl" format="2">
  <advance width="480"/>
  <outline>
    <contour>
      <point x="409" y="-186" type="curve"/>
      <point x="420" y="-138" type="line"/>
      <point x="291" y="-138"/>
      <point x="221" y="-82"/>
      <point x="221" y="71" type="curve" smooth="yes"/>
      <point x="221" y="133"/>
      <point x="233" y="202"/>
      <point x="233" y="244" type="curve" smooth="yes"/>
      <point x="233" y="329"/>
      <point x="183" y="396"/>
      <point x="85" y="396" type="curve"/>
      <point x="85" y="384" type="line"/>
      <point x="183" y="384"/>
      <point x="233" y="451"/>
      <point x="233" y="536" type="curve" smooth="yes"/>
      <point x="233" y="578"/>
      <point x="221" y="647"/>
      <point x="221" y="709" type="curve" smooth="yes"/>
      <point x="221" y="862"/>
      <point x="292" y="918"/>
      <point x="420" y="918" type="curve"/>
      <point x="409" y="966" type="line"/>
      <point x="261" y="966"/>
      <point x="163" y="887"/>
      <point x="163" y="718" type="curve" smooth="yes"/>
      <point x="163" y="659"/>
      <point x="175" y="582"/>
      <point x="175" y="539" type="curve" smooth="yes"/>
      <point x="175" y="457"/>
      <point x="132" y="426"/>
      <point x="42" y="390" type="curve"/>
      <point x="132" y="354"/>
      <point x="175" y="323"/>
      <point x="175" y="241" type="curve" smooth="yes"/>
      <point x="175" y="198"/>
      <point x="163" y="121"/>
      <point x="163" y="62" type="curve" smooth="yes"/>
      <point x="163" y="-107"/>
      <point x="261" y="-186"/>
    </contour>
  </outline>
</glyph>
<glyph name="bracketleft.titl" format="2">
  <advance width="480"/>
  <outline>
    <contour>
      <point x="140" y="-180" type="line"/>
      <point x="420" y="-180" type="line"/>
      <point x="420" y="-126" type="line"/>
      <point x="198" y="-126" type="line"/>
      <point x="198" y="906" type="line"/>
      <point x="420" y="906" type="line"/>
      <point x="420" y="960" type="line"/>
      <point x="140" y="960" type="line"/>
    </contour>
  </outline>
</glyph>
<glyph name="brevecomb_gravecomb" format="2">
  <anchor x="360" y="600" name="_top"/>
  <outline>
    <contour>
      <point x="360" y="675" type="curve" smooth="yes"/>
      <point x="460" y="675"/>
      <point x="540" y="750"/>
      <point x="540" y="849" type="curve"/>
      <point x="456" y="849" type="line"/>
      <point x="456" y="796"/>
      <point x="411" y="753"/>
      <point x="360" y="753" type="curve" smooth="yes"/>
      <point x="309" y="753"/>
      <point x="264" y="796"/>
      <point x="264" y="849" type="curve"/>
      <point x="180" y="849" type="line"/>
      <point x="180" y="749"/>
      <point x="259" y="675"/>
    </contour>
    <contour>
      <point x="330" y="879" type="line"/>
      <point x="414" y="879" type="line"/>
      <point x="338" y="1029" type="line"/>
      <point x="226" y="1029" type="line"/>
    </contour>
  </outline>
</glyph>
<glyph name="careof.titl" format="2">
  <advance width="960"/>
  <outline>
    <contour>
      <point x="121" y="0" type="line"/>
      <point x="181" y="0" type="line"/>
      <point x="799" y="900" type="line"/>
      <point x="739" y="900" type="line"/>
    </contour>
    <contour>
      <point x="720" y="-12" type="curve" smooth="yes"/>
      <point x="830" y="-12"/>
      <point x="918" y="74"/>
      <point x="918" y="180" type="curve" smooth="yes"/>
      <point x="918" y="286"/>
      <point x="830" y="372"/>
      <point x="720" y="372" type="curve" smooth="yes"/>
      <point x="610" y="372"/>
      <point x="522" y="286"/>
      <point x="522" y="180" type="curve" smooth="yes"/>
      <point x="522" y="74"/>
      <point x="610" y="-12"/>
    </contour>
    <contour>
      <point x="720" y="69" type="curve" smooth="yes"/>
      <point x="656" y="69"/>
      <point x="606" y="119"/>
      <point x="606" y="180" type="curve" smooth="yes"/>
      <point x="606" y="241"/>
      <point x="656" y="291"/>
      <point x="720" y="291" type="curve" smooth="yes"/>
      <point x="783" y="291"/>
      <point x="834" y="241"/>
      <point x="834" y="180" type="curve" smooth="yes"/>
      <point x="834" y="119"/>
      <point x="783" y="69"/>
    </contour>
    <contour>
      <point x="240" y="528" type="curve" smooth="yes"/>
      <point x="282" y="528"/>
      <point x="321" y="541"/>
      <point x="353" y="562" type="curve"/>
      <point x="332" y="646" type="line"/>
      <point x="312" y="623"/>
      <point x="280" y="609"/>
      <point x="243" y="609" type="curve" smooth="yes"/>
      <point x="176" y="609"/>
      <point x="126" y="659"/>
      <point x="126" y="720" type="curve" smooth="yes"/>
      <point x="126" y="781"/>
      <point x="176" y="831"/>
      <point x="243" y="831" type="curve" smooth="yes"/>
      <point x="280" y="831"/>
      <point x="312" y="817"/>
      <point x="332" y="795" type="curve"/>
      <point x="353" y="878" type="line"/>
      <point x="321" y="899"/>
      <point x="282" y="912"/>
      <point x="240" y="912" type="curve" smooth="yes"/>
      <point x="130" y="912"/>
      <point x="42" y="826"/>
      <point x="42" y="720" type="curve" smooth="yes"/>
      <point x="42" y="614"/>
      <point x="130" y="528"/>
    </contour>
  </outline>
</glyph>
<glyph name="dek.numr" format="2">
  <advance width="480"/>
  <outline>
    <contour>
      <point x="253" y="408" type="curve" smooth="yes"/>
      <point x="344" y="408"/>
      <point x="414" y="474"/>
      <point x="414" y="562" type="curve" smooth="yes"/>
      <point x="414" y="581"/>
      <point x="410" y="600"/>
      <point x="401" y="618" type="curve"/>
      <point x="309" y="618" type="line"/>
      <point x="323" y="600"/>
      <point x="328" y="582"/>
      <point x="328" y="563" type="curve" smooth="yes"/>
      <point x="328" y="517"/>
      <point x="297" y="488"/>
      <point x="254" y="488" type="curve" smooth="yes"/>
      <point x="209" y="488"/>
      <point x="180" y="520"/>
      <point x="180" y="559" type="curve" smooth="yes"/>
      <point x="180" y="581"/>
      <point x="185" y="602"/>
      <point x="212" y="638" type="curve" smooth="yes"/>
      <point x="410" y="900" type="line"/>
      <point x="66" y="900" type="line"/>
      <point x="66" y="820" type="line"/>
      <point x="180" y="820" type="line"/>
      <point x="219" y="820"/>
      <point x="249" y="823"/>
      <point x="306" y="826" type="curve"/>
      <point x="295" y="864" type="line"/>
      <point x="243" y="805"/>
      <point x="195" y="745"/>
      <point x="149" y="686" type="curve" smooth="yes"/>
      <point x="110" y="636"/>
      <point x="94" y="600"/>
      <point x="94" y="561" type="curve" smooth="yes"/>
      <point x="94" y="476"/>
      <point x="163" y="408"/>
    </contour>
  </outline>
</glyph>
<glyph name="eight.lf" format="2">
  <advance width="750"/>
  <outline>
    <contour>
      <point x="375" y="-12" type="curve" smooth="yes"/>
      <point x="545" y="-12"/>
      <point x="687" y="121"/>
      <point x="687" y="293" type="curve" smooth="yes"/>
      <point x="687" y="418"/>
      <point x="612" y="521"/>
      <point x="506" y="568" type="curve"/>
      <point x="512" y="550" type="line"/>
      <point x="557" y="587"/>
      <point x="586" y="639"/>
      <point x="586" y="705" type="curve" smooth="yes"/>
      <point x="586" y="822"/>
      <point x="491" y="912"/>
      <point x="375" y="912" type="curve" smooth="yes"/>
      <point x="259" y="912"/>
      <point x="164" y="822"/>
      <point x="164" y="705" type="curve" smooth="yes"/>
      <point x="164" y="639"/>
      <point x="193" y="588"/>
      <point x="238" y="550" type="curve"/>
      <point x="244" y="568" type="line"/>
      <point x="138" y="521"/>
      <point x="63" y="418"/>
      <point x="63" y="293" type="curve" smooth="yes"/>
      <point x="63" y="121"/>
      <point x="205" y="-12"/>
    </contour>
    <contour>
      <point x="375" y="90" type="curve" smooth="yes"/>
      <point x="261" y="90"/>
      <point x="171" y="181"/>
      <point x="171" y="294" type="curve" smooth="yes"/>
      <point x="171" y="408"/>
      <point x="261" y="498"/>
      <point x="375" y="498" type="curve" smooth="yes"/>
      <point x="489" y="498"/>
      <point x="579" y="408"/>
      <point x="579" y="294" type="curve" smooth="yes"/>
      <point x="579" y="181"/>
      <point x="489" y="90"/>
    </contour>
    <contour>
      <point x="375" y="586" type="curve" smooth="yes"/>
      <point x="311" y="586"/>
      <point x="260" y="637"/>
      <point x="260" y="701" type="curve" smooth="yes"/>
      <point x="260" y="765"/>
      <point x="311" y="816"/>
      <point x="375" y="816" type="curve" smooth="yes"/>
      <point x="439" y="816"/>
      <point x="490" y="765"/>
      <point x="490" y="701" type="curve" smooth="yes"/>
      <point x="490" y="637"/>
      <point x="439" y="586"/>
    </contour>
  </outline>
</glyph>
<glyph name="endash.case" format="2">
  <advance width="720"/>
  <outline>
    <contour>
      <point x="60" y="402" type="line"/>
      <point x="660" y="402" type="line"/>
      <point x="660" y="498" type="line"/>
      <point x="60" y="498" type="line"/>
    </contour>
  </outline>
</glyph>
<glyph name="macroncomb.narrow" format="2">
  <anchor x="360" y="600" name="_top"/>
  <outline>
    <contour>
      <point x="213" y="738" type="line"/>
      <point x="507" y="738" type="line"/>
      <point x="507" y="822" type="line"/>
      <point x="213" y="822" type="line"/>
    </contour>
  </outline>
</glyph>
<glyph name="multiply.titl" format="2">
  <advance width="750"/>
  <outline>
    <contour>
      <point x="579" y="208" type="line"/>
      <point x="617" y="246" type="line"/>
      <point x="171" y="692" type="line"/>
      <point x="133" y="654" type="line"/>
    </contour>
    <contour>
      <point x="170" y="208" type="line"/>
      <point x="617" y="655" type="line"/>
      <point x="580" y="692" type="line"/>
      <point x="133" y="245" type="line"/>
    </contour>
  </outline>
</glyph>
<glyph name="nine.numr" format="2">
  <advance width="480"/>
  <outline>
    <contour>
      <point x="184" y="420" type="line"/>
      <point x="276" y="420" type="line"/>
      <point x="396" y="659" type="line" smooth="yes"/>
      <point x="408" y="683"/>
      <point x="416" y="713"/>
      <point x="416" y="741" type="curve" smooth="yes"/>
      <point x="416" y="837"/>
      <point x="337" y="912"/>
      <point x="240" y="912" type="curve" smooth="yes"/>
      <point x="143" y="912"/>
      <point x="64" y="837"/>
      <point x="64" y="740" type="curve" smooth="yes"/>
      <point x="64" y="645"/>
      <point x="138" y="575"/>
      <point x="227" y="575" type="curve" smooth="yes"/>
      <point x="251" y="575"/>
      <point x="277" y="581"/>
      <point x="298" y="603" type="curve"/>
      <point x="281" y="600" type="line"/>
    </contour>
    <contour>
      <point x="240" y="652" type="curve" smooth="yes"/>
      <point x="189" y="652"/>
      <point x="150" y="693"/>
      <point x="150" y="743" type="curve" smooth="yes"/>
      <point x="150" y="792"/>
      <point x="190" y="832"/>
      <point x="240" y="832" type="curve" smooth="yes"/>
      <point x="291" y="832"/>
      <point x="330" y="792"/>
      <point x="330" y="743" type="curve" smooth="yes"/>
      <point x="330" y="693"/>
      <point x="291" y="652"/>
    </contour>
  </outline>
</glyph>
<glyph name="periodcentered.loclCAT.case" format="2">
  <advance width="360"/>
  <anchor x="180" y="450" name="_periodcentered"/>
  <outline>
    <contour>
      <point x="180" y="378" type="curve" smooth="yes"/>
      <point x="221" y="378"/>
      <point x="252" y="410"/>
      <point x="252" y="450" type="curve" smooth="yes"/>
      <point x="252" y="491"/>
      <point x="221" y="522"/>
      <point x="180" y="522" type="curve" smooth="yes"/>
      <point x="140" y="522"/>
      <point x="108" y="491"/>
      <point x="108" y="450" type="curve" smooth="yes"/>
      <point x="108" y="410"/>
      <point x="140" y="378"/>
    </contour>
  </outline>
</glyph>
<glyph name="ringcomb_acutecomb.case" format="2">
  <anchor x="360" y="900" name="_top"/>
  <outline>
    <contour>
      <point x="360" y="834" type="curve" smooth="yes"/>
      <point x="447" y="834"/>
      <point x="519" y="902"/>
      <point x="519" y="990" type="curve" smooth="yes"/>
      <point x="519" y="1078"/>
      <point x="447" y="1146"/>
      <point x="360" y="1146" type="curve" smooth="yes"/>
      <point x="272" y="1146"/>
      <point x="201" y="1078"/>
      <point x="201" y="990" type="curve" smooth="yes"/>
      <point x="201" y="902"/>
      <point x="272" y="834"/>
    </contour>
    <contour>
      <point x="360" y="906" type="curve" smooth="yes"/>
      <point x="314" y="906"/>
      <point x="276" y="944"/>
      <point x="276" y="990" type="curve" smooth="yes"/>
      <point x="276" y="1035"/>
      <point x="314" y="1074"/>
      <point x="360" y="1074" type="curve" smooth="yes"/>
      <point x="405" y="1074"/>
      <point x="444" y="1035"/>
      <point x="444" y="990" type="curve" smooth="yes"/>
      <point x="444" y="944"/>
      <point x="405" y="906"/>
    </contour>
    <contour>
      <point x="324" y="1206" type="line"/>
      <point x="408" y="1206" type="line"/>
      <point x="485" y="1317" type="line"/>
      <point x="380" y="1317" type="line"/>
    </contour>
  </outline>
</glyph>
<glyph name="six.lf" format="2">
  <advance width="750"/>
  <outline>
    <contour>
      <point x="375" y="-12" type="curve" smooth="yes"/>
      <point x="551" y="-12"/>
      <point x="690" y="121"/>
      <point x="690" y="294" type="curve" smooth="yes"/>
      <point x="690" y="466"/>
      <point x="556" y="594"/>
      <point x="392" y="594" type="curve" smooth="yes"/>
      <point x="346" y="594"/>
      <point x="301" y="583"/>
      <point x="259" y="543" type="curve"/>
      <point x="264" y="536" type="line"/>
      <point x="462" y="900" type="line"/>
      <point x="338" y="900" type="line"/>
      <point x="97" y="440" type="line" smooth="yes"/>
      <point x="74" y="396"/>
      <point x="60" y="345"/>
      <point x="60" y="293" type="curve" smooth="yes"/>
      <point x="60" y="121"/>
      <point x="199" y="-12"/>
    </contour>
    <contour>
      <point x="376" y="90" type="curve" smooth="yes"/>
      <point x="261" y="90"/>
      <point x="170" y="182"/>
      <point x="170" y="295" type="curve" smooth="yes"/>
      <point x="170" y="407"/>
      <point x="261" y="500"/>
      <point x="376" y="500" type="curve" smooth="yes"/>
      <point x="492" y="500"/>
      <point x="582" y="407"/>
      <point x="582" y="295" type="curve" smooth="yes"/>
      <point x="582" y="182"/>
      <point x="491" y="90"/>
    </contour>
  </outline>
</glyph>
<glyph name="slashlongcomb.case" format="2">
  <anchor x="400" y="457" name="_center"/>
  <outline>
    <contour>
      <point x="71" y="-18" type="line"/>
      <point x="800" y="859" type="line"/>
      <point x="729" y="918" type="line"/>
      <point x="0" y="41" type="line"/>
    </contour>
  </outline>
</glyph>
<glyph name="t_t" format="2">
  <advance width="840"/>
  <outline>
    <contour>
      <point x="556" y="0" type="line"/>
      <point x="664" y="0" type="line"/>
      <point x="664" y="549" type="line"/>
      <point x="661" y="549" type="line"/>
      <point x="661" y="800" type="line"/>
      <point x="559" y="800" type="line"/>
      <point x="559" y="550" type="line"/>
      <point x="556" y="550" type="line"/>
    </contour>
    <contour>
      <point x="166" y="0" type="line"/>
      <point x="274" y="0" type="line"/>
      <point x="274" y="549" type="line"/>
      <point x="271" y="549" type="line"/>
      <point x="271" y="800" type="line"/>
      <point x="169" y="800" type="line"/>
      <point x="169" y="550" type="line"/>
      <point x="166" y="550" type="line"/>
    </contour>
    <contour>
      <point x="30" y="510" type="line"/>
      <point x="810" y="510" type="line"/>
      <point x="810" y="600" type="line"/>
      <point x="30" y="600" type="line"/>
    </contour>
  </outline>
</glyph>
